<svg width="14" height="12" viewBox="0 0 14 12" fill="none" xmlns="http://www.w3.org/2000/svg">
<path fill-rule="evenodd" clip-rule="evenodd" d="M1.22449 0.857142C1.22449 0.629814 1.31506 0.411797 1.47628 0.251051C1.63751 0.090306 1.85617 0 2.08417 0H12.4004C12.6284 0 12.8471 0.090306 13.0083 0.251051C13.1695 0.411797 13.2601 0.629814 13.2601 0.857142C13.2601 1.08447 13.1695 1.30249 13.0083 1.46323C12.8471 1.62398 12.6284 1.71428 12.4004 1.71428H2.08417C1.85617 1.71428 1.63751 1.62398 1.47628 1.46323C1.31506 1.30249 1.22449 1.08447 1.22449 0.857142ZM1.22449 5.14285C1.22449 4.91552 1.31506 4.69751 1.47628 4.53676C1.63751 4.37602 1.85617 4.28571 2.08417 4.28571H12.4004C12.6284 4.28571 12.8471 4.37602 13.0083 4.53676C13.1695 4.69751 13.2601 4.91552 13.2601 5.14285C13.2601 5.37018 13.1695 5.5882 13.0083 5.74894C12.8471 5.90969 12.6284 6 12.4004 6H2.08417C1.85617 6 1.63751 5.90969 1.47628 5.74894C1.31506 5.5882 1.22449 5.37018 1.22449 5.14285ZM6.3826 9.42856C6.3826 9.20124 6.47317 8.98322 6.6344 8.82247C6.79562 8.66173 7.01428 8.57142 7.24228 8.57142H12.4004C12.6284 8.57142 12.8471 8.66173 13.0083 8.82247C13.1695 8.98322 13.2601 9.20124 13.2601 9.42856C13.2601 9.65589 13.1695 9.87391 13.0083 10.0347C12.8471 10.1954 12.6284 10.2857 12.4004 10.2857H7.24228C7.01428 10.2857 6.79562 10.1954 6.6344 10.0347C6.47317 9.87391 6.3826 9.65589 6.3826 9.42856Z" fill="#929292"/>
<path d="M0.679978 8.82234C0.478148 8.98308 0.364761 9.2011 0.364761 9.42843C0.364761 9.65576 0.478148 9.87377 0.679978 10.0345C0.881807 10.1953 1.15555 10.2856 1.44098 10.2856H4.44661C4.73204 10.2856 5.00578 10.1953 5.20761 10.0345C5.40944 9.87377 5.52282 9.65576 5.52282 9.42843C5.52282 9.2011 5.40944 8.98308 5.20761 8.82234C5.00578 8.66159 4.73204 8.57129 4.44661 8.57129H1.44098C1.15555 8.57129 0.881807 8.66159 0.679978 8.82234Z" fill="#929292"/>
<path d="M3.55168 7.17123C3.39046 6.97 3.1718 6.85695 2.94381 6.85695C2.71581 6.85695 2.49715 6.97 2.33594 7.17123C2.17472 7.37247 2.08415 7.6454 2.08415 7.92999L2.08415 10.9267C2.08415 11.2113 2.17472 11.4843 2.33594 11.6855C2.49715 11.8867 2.71581 11.9998 2.94381 11.9998C3.1718 11.9998 3.39046 11.8867 3.55168 11.6855C3.7129 11.4843 3.80347 11.2113 3.80347 10.9267L3.80347 7.92999C3.80347 7.6454 3.7129 7.37247 3.55168 7.17123Z" fill="#929292"/>
</svg>
