<svg width="28" height="27" viewBox="0 0 28 27" fill="none" xmlns="http://www.w3.org/2000/svg">
<circle cx="14.3369" cy="13.5" r="12.5" stroke="#9A9A9A" stroke-width="2"/>
<path d="M18.2569 10C18.2569 7.46 16.2969 6 14.0369 6C11.7169 6 9.83691 7.52 9.83691 10H12.4369C12.4369 9.08 12.9769 8.34 14.0369 8.34C15.0369 8.34 15.6569 9.04 15.6569 9.98C15.6569 10.42 15.3969 10.9 15.0769 11.32L13.5969 13.22C13.0769 13.9 12.8369 14.44 12.8369 15.3V15.9H15.4369V15.48C15.4369 15.14 15.5969 14.72 15.7969 14.46L17.2769 12.5C17.8369 11.76 18.2569 11 18.2569 10ZM15.5169 20.36V17.7H12.7569V20.36H15.5169Z" fill="#9A9A9A"/>
</svg>
