<svg width="38" height="38" viewBox="0 0 38 38" fill="none" xmlns="http://www.w3.org/2000/svg">
<path d="M19.0885 0C8.70093 0 0.25 8.45093 0.25 18.8385C0.25 29.226 8.70093 37.6769 19.0885 37.6769C29.476 37.6769 37.9269 29.226 37.9269 18.8385C37.9269 8.45093 29.476 0 19.0885 0ZM19.0885 33.9092C10.7788 33.9092 4.01769 27.1481 4.01769 18.8385C4.01769 10.5288 10.7788 3.76769 19.0885 3.76769C27.3981 3.76769 34.1592 10.5288 34.1592 18.8385C34.1592 27.1481 27.3981 33.9092 19.0885 33.9092Z" fill="#EB212E"/>
<path d="M13.4365 28.2574L28.5073 18.8382L13.4365 9.41895V28.2574Z" fill="#EB212E"/>
</svg>
