<svg width="24" height="19" viewBox="0 0 24 19" fill="none" xmlns="http://www.w3.org/2000/svg">
<path d="M15.0596 9.19334C15.0596 10.1246 14.7065 11.0178 14.0779 11.6763C13.4493 12.3348 12.5968 12.7048 11.7078 12.7048C10.8188 12.7048 9.96628 12.3348 9.33769 11.6763C8.7091 11.0178 8.35596 10.1246 8.35596 9.19334C8.35596 8.26204 8.7091 7.36889 9.33769 6.71037C9.96628 6.05184 10.8188 5.68188 11.7078 5.68188C12.5968 5.68188 13.4493 6.05184 14.0779 6.71037C14.7065 7.36889 15.0596 8.26204 15.0596 9.19334V9.19334Z" stroke="#E10B1D" stroke-width="2" stroke-linecap="round" stroke-linejoin="round"/>
<path d="M1.04688 9.19339C2.47029 4.44474 6.7059 1 11.708 1C16.7111 1 20.9456 4.44474 22.3691 9.19339C20.9456 13.942 16.7111 17.3868 11.708 17.3868C6.7059 17.3868 2.47029 13.942 1.04688 9.19339Z" stroke="#E10B1D" stroke-width="2" stroke-linecap="round" stroke-linejoin="round"/>
</svg>
